<svg xmlns="http://www.w3.org/2000/svg" xmlns:xlink="http://www.w3.org/1999/xlink" width="500" viewBox="0 0 375 374.999991" height="500" preserveAspectRatio="xMidYMid meet"><defs><clipPath id="901ec44129"><path d="M 25.078125 0 L 349.828125 0 L 349.828125 375 L 25.078125 375 Z M 25.078125 0 " clip-rule="nonzero"></path></clipPath></defs><g clip-path="url(#901ec44129)"><path fill="#ffffff" d="M 299.15625 309.214844 C 281.449219 305.671875 260.285156 303.089844 237.234375 301.566406 C 243.988281 293.15625 251.058594 284.085938 258.105469 274.625 C 302.449219 215.074219 324.933594 168.945312 324.933594 137.523438 C 324.933594 61.742188 263.28125 0.0898438 187.5 0.0898438 C 111.71875 0.0898438 50.066406 61.742188 50.066406 137.523438 C 50.066406 183.476562 99.117188 253.570312 137.652344 301.554688 C 114.640625 303.085938 93.53125 305.679688 75.84375 309.214844 C 41.683594 316.046875 25.078125 325.277344 25.078125 337.429688 C 25.078125 349.578125 41.683594 358.808594 75.84375 365.640625 C 105.730469 371.617188 145.386719 374.910156 187.5 374.910156 C 229.613281 374.910156 269.269531 371.617188 299.15625 365.640625 C 333.316406 358.808594 349.921875 349.578125 349.921875 337.429688 C 349.921875 325.277344 333.316406 316.046875 299.15625 309.214844 Z M 126.917969 267.160156 C 84.8125 210.621094 62.558594 165.792969 62.558594 137.523438 C 62.558594 68.632812 118.609375 12.585938 187.5 12.585938 C 256.390625 12.585938 312.441406 68.632812 312.441406 137.523438 C 312.441406 199.199219 210.480469 315.292969 187.496094 340.675781 C 177.394531 329.535156 152.035156 300.894531 126.917969 267.160156 Z M 296.707031 353.386719 C 267.601562 359.210938 228.816406 362.414062 187.5 362.414062 C 146.183594 362.414062 107.398438 359.210938 78.292969 353.386719 C 39.964844 345.722656 37.570312 337.507812 37.570312 337.429688 C 37.570312 337.351562 39.964844 329.132812 78.292969 321.46875 C 97.71875 317.582031 121.464844 314.867188 147.386719 313.488281 C 166.441406 336.503906 181.175781 352.308594 182.941406 354.195312 C 184.121094 355.453125 185.773438 356.167969 187.5 356.167969 C 189.226562 356.167969 190.875 355.453125 192.054688 354.195312 C 192.28125 353.957031 207.542969 337.625 227.511719 313.492188 C 253.472656 314.867188 277.257812 317.578125 296.707031 321.46875 C 335.035156 329.132812 337.429688 337.351562 337.429688 337.429688 C 337.429688 337.507812 335.035156 345.722656 296.707031 353.386719 Z M 296.707031 353.386719 " fill-opacity="1" fill-rule="nonzero"></path></g><path fill="#ffffff" d="M 299.945312 137.523438 C 299.945312 75.519531 249.503906 25.078125 187.5 25.078125 C 125.496094 25.078125 75.054688 75.519531 75.054688 137.523438 C 75.054688 199.527344 125.496094 249.96875 187.5 249.96875 C 249.503906 249.96875 299.945312 199.527344 299.945312 137.523438 Z M 87.546875 137.523438 C 87.546875 82.410156 132.386719 37.570312 187.5 37.570312 C 242.613281 37.570312 287.453125 82.410156 287.453125 137.523438 C 287.453125 192.636719 242.613281 237.476562 187.5 237.476562 C 132.386719 237.476562 87.546875 192.636719 87.546875 137.523438 Z M 87.546875 137.523438 " fill-opacity="1" fill-rule="nonzero"></path><path fill="#ffffff" d="M 262.464844 192.183594 L 262.464844 143.195312 C 269.640625 141.296875 274.957031 134.765625 274.957031 127 L 274.957031 112.535156 C 274.957031 111.566406 274.730469 110.609375 274.296875 109.742188 L 255.558594 72.261719 C 254.5 70.144531 252.335938 68.808594 249.96875 68.808594 L 125.03125 68.808594 C 122.664062 68.808594 120.5 70.144531 119.441406 72.261719 L 100.703125 109.742188 C 100.269531 110.609375 100.042969 111.566406 100.042969 112.535156 L 100.042969 127 C 100.042969 134.765625 105.359375 141.296875 112.535156 143.195312 L 112.535156 192.183594 C 112.535156 199.933594 118.839844 206.242188 126.589844 206.242188 L 248.40625 206.242188 C 256.160156 206.242188 262.464844 199.933594 262.464844 192.183594 Z M 262.464844 127 C 262.464844 129.359375 260.546875 131.277344 258.1875 131.277344 C 256.21875 131.277344 254.515625 129.945312 254.039062 128.039062 L 251.722656 118.78125 L 262.464844 118.78125 Z M 246.109375 81.300781 L 258.601562 106.289062 L 248.226562 106.289062 L 239.894531 81.300781 Z M 212.488281 81.300781 L 226.726562 81.300781 L 235.054688 106.289062 L 212.488281 106.289062 Z M 235.722656 118.78125 L 234.445312 123.886719 C 233.359375 128.238281 229.464844 131.277344 224.980469 131.277344 C 220.496094 131.277344 216.605469 128.238281 215.519531 123.886719 L 214.242188 118.78125 Z M 175.007812 81.300781 L 199.992188 81.300781 L 199.992188 106.289062 L 175.007812 106.289062 Z M 198.238281 118.78125 L 196.964844 123.886719 C 195.875 128.238281 191.984375 131.277344 187.5 131.277344 C 183.015625 131.277344 179.125 128.238281 178.035156 123.886719 L 176.761719 118.78125 Z M 148.273438 81.300781 L 162.511719 81.300781 L 162.511719 106.289062 L 139.945312 106.289062 Z M 160.757812 118.78125 L 159.480469 123.886719 C 158.394531 128.238281 154.503906 131.277344 150.019531 131.277344 C 145.535156 131.277344 141.640625 128.238281 140.554688 123.886719 L 139.277344 118.78125 Z M 128.890625 81.300781 L 135.101562 81.300781 L 126.773438 106.289062 L 116.394531 106.289062 Z M 120.960938 128.039062 C 120.484375 129.945312 118.78125 131.277344 116.8125 131.277344 C 114.453125 131.277344 112.535156 129.359375 112.535156 127 L 112.535156 118.78125 L 123.277344 118.78125 Z M 162.511719 193.746094 L 143.769531 193.746094 L 143.769531 168.757812 L 162.511719 168.757812 Z M 168.757812 156.265625 L 137.523438 156.265625 C 134.074219 156.265625 131.277344 159.0625 131.277344 162.511719 L 131.277344 193.746094 L 126.589844 193.746094 C 125.730469 193.746094 125.03125 193.046875 125.03125 192.183594 L 125.03125 141.617188 C 127.953125 139.976562 130.359375 137.480469 131.867188 134.402344 C 135.941406 140.152344 142.628906 143.769531 150.019531 143.769531 C 157.777344 143.769531 164.757812 139.78125 168.757812 133.527344 C 172.761719 139.78125 179.742188 143.769531 187.5 143.769531 C 195.257812 143.769531 202.238281 139.78125 206.242188 133.527344 C 210.242188 139.78125 217.222656 143.769531 224.980469 143.769531 C 232.371094 143.769531 239.058594 140.152344 243.132812 134.402344 C 244.640625 137.476562 247.046875 139.976562 249.96875 141.617188 L 249.96875 192.183594 C 249.96875 193.046875 249.269531 193.746094 248.40625 193.746094 L 175.007812 193.746094 L 175.007812 162.511719 C 175.007812 159.0625 172.207031 156.265625 168.757812 156.265625 Z M 168.757812 156.265625 " fill-opacity="1" fill-rule="nonzero"></path><path fill="#ffffff" d="M 193.746094 181.253906 L 237.476562 181.253906 C 240.925781 181.253906 243.722656 178.457031 243.722656 175.007812 L 243.722656 156.265625 C 243.722656 152.816406 240.925781 150.019531 237.476562 150.019531 L 193.746094 150.019531 C 190.296875 150.019531 187.5 152.816406 187.5 156.265625 L 187.5 175.007812 C 187.5 178.457031 190.296875 181.253906 193.746094 181.253906 Z M 199.992188 162.511719 L 231.230469 162.511719 L 231.230469 168.757812 L 199.992188 168.757812 Z M 199.992188 162.511719 " fill-opacity="1" fill-rule="nonzero"></path></svg>