<svg xmlns="http://www.w3.org/2000/svg" xmlns:xlink="http://www.w3.org/1999/xlink" width="500" viewBox="0 0 375 374.999991" height="500" preserveAspectRatio="xMidYMid meet"><defs><clipPath id="bf65a5ef1e"><path d="M 4.136719 4.136719 L 370.886719 4.136719 L 370.886719 370.886719 L 4.136719 370.886719 Z M 4.136719 4.136719 " clip-rule="nonzero"></path></clipPath></defs><g clip-path="url(#bf65a5ef1e)"><path fill="#ffffff" d="M 187.5 370.863281 C 86.394531 370.863281 4.136719 288.605469 4.136719 187.5 C 4.136719 86.394531 86.394531 4.136719 187.5 4.136719 C 288.605469 4.136719 370.863281 86.394531 370.863281 187.5 C 370.863281 288.605469 288.605469 370.863281 187.5 370.863281 Z M 187.5 21.597656 C 96.019531 21.597656 21.597656 96.019531 21.597656 187.5 C 21.597656 278.976562 96.019531 353.398438 187.5 353.398438 C 278.976562 353.398438 353.398438 278.976562 353.398438 187.5 C 353.398438 96.019531 278.976562 21.597656 187.5 21.597656 Z M 187.5 21.597656 " fill-opacity="1" fill-rule="nonzero"></path></g><path fill="#ffffff" d="M 247.503906 257.226562 C 247.503906 258.3125 248.382812 259.195312 249.464844 259.195312 L 276.445312 259.195312 C 277.523438 259.195312 278.402344 258.3125 278.402344 257.226562 L 278.402344 250.015625 L 247.503906 250.015625 Z M 247.503906 257.226562 " fill-opacity="1" fill-rule="nonzero"></path><path fill="#ffffff" d="M 96.59375 257.226562 C 96.59375 258.3125 97.472656 259.195312 98.554688 259.195312 L 125.539062 259.195312 C 126.621094 259.195312 127.5 258.3125 127.5 257.226562 L 127.5 250.015625 L 96.59375 250.015625 Z M 96.59375 257.226562 " fill-opacity="1" fill-rule="nonzero"></path><path fill="#ffffff" d="M 269.234375 186.71875 C 269.234375 187.390625 269.199219 188.0625 269.136719 188.734375 C 269.070312 189.40625 268.972656 190.070312 268.839844 190.730469 C 268.710938 191.390625 268.546875 192.046875 268.351562 192.691406 C 268.160156 193.335938 267.933594 193.96875 267.675781 194.589844 C 267.421875 195.214844 267.132812 195.820312 266.820312 196.414062 C 266.503906 197.007812 266.160156 197.585938 265.789062 198.148438 C 265.414062 198.707031 265.015625 199.246094 264.59375 199.769531 C 264.167969 200.289062 263.71875 200.789062 263.246094 201.265625 C 262.769531 201.742188 262.273438 202.191406 261.757812 202.621094 C 261.238281 203.046875 260.703125 203.449219 260.144531 203.824219 C 259.589844 204.195312 259.015625 204.542969 258.425781 204.859375 C 257.832031 205.179688 257.230469 205.464844 256.609375 205.722656 C 255.992188 205.980469 255.363281 206.207031 254.722656 206.402344 C 254.078125 206.597656 253.429688 206.761719 252.773438 206.894531 C 252.117188 207.027344 251.457031 207.125 250.789062 207.191406 C 250.121094 207.257812 249.453125 207.289062 248.785156 207.289062 C 248.113281 207.289062 247.445312 207.257812 246.78125 207.191406 C 246.113281 207.125 245.453125 207.027344 244.796875 206.894531 C 244.136719 206.761719 243.488281 206.597656 242.847656 206.402344 C 242.207031 206.207031 241.578125 205.980469 240.960938 205.722656 C 240.339844 205.464844 239.734375 205.179688 239.144531 204.859375 C 238.554688 204.542969 237.980469 204.195312 237.425781 203.824219 C 236.867188 203.449219 236.328125 203.046875 235.8125 202.621094 C 235.292969 202.191406 234.800781 201.742188 234.324219 201.265625 C 233.851562 200.789062 233.402344 200.289062 232.976562 199.769531 C 232.554688 199.246094 232.15625 198.707031 231.78125 198.148438 C 231.410156 197.585938 231.066406 197.007812 230.75 196.414062 C 230.433594 195.820312 230.148438 195.214844 229.894531 194.589844 C 229.636719 193.96875 229.410156 193.335938 229.214844 192.691406 C 229.023438 192.046875 228.859375 191.390625 228.730469 190.730469 C 228.597656 190.070312 228.5 189.40625 228.433594 188.734375 C 228.367188 188.0625 228.335938 187.390625 228.335938 186.71875 C 228.335938 186.042969 228.367188 185.371094 228.433594 184.703125 C 228.5 184.03125 228.597656 183.367188 228.730469 182.703125 C 228.859375 182.042969 229.023438 181.390625 229.214844 180.746094 C 229.410156 180.101562 229.636719 179.46875 229.894531 178.847656 C 230.148438 178.222656 230.433594 177.613281 230.75 177.019531 C 231.066406 176.425781 231.410156 175.847656 231.78125 175.289062 C 232.15625 174.730469 232.554688 174.1875 232.976562 173.667969 C 233.402344 173.148438 233.851562 172.648438 234.324219 172.171875 C 234.800781 171.695312 235.292969 171.242188 235.8125 170.816406 C 236.328125 170.390625 236.867188 169.988281 237.425781 169.613281 C 237.980469 169.238281 238.554688 168.894531 239.144531 168.574219 C 239.734375 168.257812 240.339844 167.96875 240.960938 167.710938 C 241.578125 167.453125 242.207031 167.226562 242.847656 167.03125 C 243.488281 166.835938 244.136719 166.671875 244.796875 166.542969 C 245.453125 166.410156 246.113281 166.3125 246.78125 166.246094 C 247.445312 166.179688 248.113281 166.148438 248.785156 166.148438 C 249.453125 166.148438 250.121094 166.179688 250.789062 166.246094 C 251.457031 166.3125 252.117188 166.410156 252.773438 166.542969 C 253.429688 166.671875 254.078125 166.835938 254.722656 167.03125 C 255.363281 167.226562 255.992188 167.453125 256.609375 167.710938 C 257.230469 167.96875 257.832031 168.257812 258.425781 168.574219 C 259.015625 168.894531 259.589844 169.238281 260.144531 169.613281 C 260.703125 169.988281 261.238281 170.390625 261.757812 170.816406 C 262.273438 171.242188 262.769531 171.695312 263.246094 172.171875 C 263.71875 172.648438 264.167969 173.148438 264.59375 173.667969 C 265.015625 174.1875 265.414062 174.730469 265.789062 175.289062 C 266.160156 175.847656 266.503906 176.425781 266.820312 177.019531 C 267.132812 177.613281 267.421875 178.222656 267.675781 178.847656 C 267.933594 179.46875 268.160156 180.101562 268.351562 180.746094 C 268.546875 181.390625 268.710938 182.042969 268.839844 182.703125 C 268.972656 183.367188 269.070312 184.03125 269.136719 184.703125 C 269.199219 185.371094 269.234375 186.042969 269.234375 186.71875 Z M 269.234375 186.71875 " fill-opacity="1" fill-rule="nonzero"></path><path fill="#ffffff" d="M 287.375 127.519531 L 87.625 127.519531 C 76.457031 127.519531 67.371094 136.660156 67.371094 147.894531 L 67.371094 223.222656 C 67.371094 234.457031 76.457031 243.59375 87.625 243.59375 L 92.097656 243.59375 L 92.097656 243.597656 L 131.996094 243.597656 L 131.996094 243.59375 L 243.003906 243.59375 L 243.003906 243.597656 L 282.902344 243.597656 L 282.902344 243.59375 L 287.375 243.59375 C 298.542969 243.59375 307.625 234.457031 307.625 223.222656 L 307.625 147.894531 C 307.625 136.660156 298.542969 127.519531 287.375 127.519531 Z M 85.589844 165.125 L 127.519531 165.125 C 129.78125 165.125 131.609375 166.964844 131.609375 169.238281 C 131.609375 171.515625 129.78125 173.355469 127.519531 173.355469 L 85.589844 173.355469 C 83.332031 173.355469 81.503906 171.515625 81.503906 169.238281 C 81.503906 166.96875 83.335938 165.125 85.589844 165.125 Z M 85.589844 181.308594 L 127.519531 181.308594 C 129.78125 181.308594 131.609375 183.148438 131.609375 185.421875 C 131.609375 187.695312 129.78125 189.535156 127.519531 189.535156 L 85.589844 189.535156 C 83.332031 189.535156 81.503906 187.695312 81.503906 185.421875 C 81.503906 183.148438 83.335938 181.308594 85.589844 181.308594 Z M 85.589844 205.992188 C 83.332031 205.992188 81.503906 204.152344 81.503906 201.878906 C 81.503906 199.605469 83.332031 197.765625 85.589844 197.765625 L 127.519531 197.765625 C 129.78125 197.765625 131.609375 199.605469 131.609375 201.878906 C 131.609375 204.152344 129.78125 205.992188 127.519531 205.992188 Z M 248.785156 231.699219 C 224.128906 231.699219 204.070312 211.523438 204.070312 186.71875 C 204.070312 161.917969 224.128906 141.738281 248.785156 141.738281 C 273.4375 141.738281 293.496094 161.917969 293.496094 186.71875 C 293.496094 211.523438 273.4375 231.699219 248.785156 231.699219 Z M 248.785156 231.699219 " fill-opacity="1" fill-rule="nonzero"></path><path fill="#ffffff" d="M 248.785156 149.964844 C 228.640625 149.964844 212.25 166.453125 212.25 186.71875 C 212.25 206.984375 228.640625 223.472656 248.785156 223.472656 C 268.929688 223.472656 285.316406 206.984375 285.316406 186.71875 C 285.316406 166.453125 268.929688 149.964844 248.785156 149.964844 Z M 248.785156 215.519531 C 233 215.519531 220.15625 202.597656 220.15625 186.71875 C 220.15625 170.839844 233 157.917969 248.785156 157.917969 C 264.570312 157.917969 277.414062 170.839844 277.414062 186.71875 C 277.414062 202.597656 264.570312 215.519531 248.785156 215.519531 Z M 248.785156 215.519531 " fill-opacity="1" fill-rule="nonzero"></path></svg>