<svg xmlns="http://www.w3.org/2000/svg" xmlns:xlink="http://www.w3.org/1999/xlink" width="500" viewBox="0 0 375 374.999991" height="500" preserveAspectRatio="xMidYMid meet"><defs><clipPath id="a490f786e5"><path d="M 29 8.941406 L 344 8.941406 L 344 52 L 29 52 Z M 29 8.941406 " clip-rule="nonzero"></path></clipPath><clipPath id="bbbde75501"><path d="M 29 166 L 344 166 L 344 365.941406 L 29 365.941406 Z M 29 166 " clip-rule="nonzero"></path></clipPath></defs><g clip-path="url(#a490f786e5)"><path fill="#ffffff" d="M 43.9375 51.796875 C 36.066406 51.796875 29.652344 45.382812 29.652344 37.511719 L 29.652344 23.226562 C 29.652344 15.355469 36.066406 8.941406 43.9375 8.941406 L 329.628906 8.941406 C 337.5 8.941406 343.914062 15.355469 343.914062 23.226562 L 343.914062 37.511719 C 343.914062 45.382812 337.5 51.796875 329.628906 51.796875 Z M 43.9375 51.796875 " fill-opacity="1" fill-rule="nonzero"></path></g><path fill="#ffffff" d="M 30.09375 94.648438 L 5.339844 165.644531 C 5.339844 165.644531 5.097656 180.273438 19.835938 180.273438 C 32.195312 180.273438 32.222656 165.644531 32.222656 165.644531 L 53.308594 94.648438 Z M 30.09375 94.648438 " fill-opacity="1" fill-rule="nonzero"></path><path fill="#ffffff" d="M 88.132812 94.648438 L 72.535156 165.644531 C 72.535156 165.644531 72.675781 180.273438 86.789062 180.273438 C 100.902344 180.273438 99.417969 165.644531 99.417969 165.644531 L 111.34375 94.648438 Z M 88.132812 94.648438 " fill-opacity="1" fill-rule="nonzero"></path><path fill="#ffffff" d="M 146.15625 94.648438 L 139.742188 165.644531 C 139.742188 165.644531 139.914062 180.273438 153.527344 180.273438 C 167.140625 180.273438 166.628906 165.644531 166.628906 165.644531 L 169.371094 94.648438 Z M 146.15625 94.648438 " fill-opacity="1" fill-rule="nonzero"></path><path fill="#ffffff" d="M 204.195312 94.648438 L 206.9375 165.644531 C 206.9375 165.644531 206.4375 180.273438 220.480469 180.273438 C 234.523438 180.273438 233.824219 165.644531 233.824219 165.644531 L 227.410156 94.648438 Z M 204.195312 94.648438 " fill-opacity="1" fill-rule="nonzero"></path><path fill="#ffffff" d="M 262.234375 94.648438 L 274.164062 165.644531 C 274.164062 165.644531 275.164062 180.273438 288.332031 180.273438 C 300.601562 180.273438 301.03125 165.644531 301.03125 165.644531 L 285.433594 94.648438 Z M 262.234375 94.648438 " fill-opacity="1" fill-rule="nonzero"></path><path fill="#ffffff" d="M 320.257812 94.648438 L 341.371094 165.644531 C 341.371094 165.644531 340.570312 180.273438 355.3125 180.273438 C 370.054688 180.273438 368.253906 165.644531 368.253906 165.644531 L 343.472656 94.648438 Z M 320.257812 94.648438 " fill-opacity="1" fill-rule="nonzero"></path><path fill="#ffffff" d="M 29.652344 108.933594 L 29.652344 80.363281 C 29.652344 72.492188 36.066406 66.082031 43.9375 66.082031 L 329.628906 66.082031 C 337.5 66.082031 343.914062 72.492188 343.914062 80.363281 L 343.914062 108.933594 Z M 29.652344 108.933594 " fill-opacity="1" fill-rule="nonzero"></path><g clip-path="url(#bbbde75501)"><path fill="#ffffff" d="M 341.058594 166.074219 C 341.070312 166.371094 341.15625 166.671875 341.15625 166.988281 C 341.15625 178.144531 332.101562 187.214844 320.929688 187.214844 C 309.761719 187.214844 300.703125 178.144531 300.703125 166.988281 C 300.703125 166.671875 300.789062 166.371094 300.804688 166.074219 L 274.105469 166.074219 C 274.121094 166.371094 274.207031 166.671875 274.207031 166.988281 C 274.207031 178.144531 265.148438 187.214844 253.976562 187.214844 C 242.808594 187.214844 233.75 178.144531 233.75 166.988281 C 233.75 166.671875 233.835938 166.371094 233.851562 166.074219 L 206.925781 166.074219 C 206.9375 166.371094 207.023438 166.671875 207.023438 166.988281 C 207.023438 178.144531 197.96875 187.214844 186.796875 187.214844 C 175.625 187.214844 166.570312 178.144531 166.570312 166.988281 C 166.570312 166.671875 166.65625 166.371094 166.671875 166.074219 L 139.730469 166.074219 C 139.742188 166.371094 139.828125 166.671875 139.828125 166.988281 C 139.828125 178.144531 130.773438 187.214844 119.601562 187.214844 C 108.429688 187.214844 99.375 178.144531 99.375 166.988281 C 99.375 166.671875 99.460938 166.371094 99.476562 166.074219 L 72.535156 166.074219 C 72.546875 166.371094 72.632812 166.671875 72.632812 166.988281 C 72.632812 178.144531 63.578125 187.214844 52.40625 187.214844 C 41.234375 187.214844 32.179688 178.144531 32.179688 166.988281 C 32.179688 166.671875 32.265625 166.371094 32.28125 166.074219 L 29.652344 166.074219 L 29.652344 351.773438 C 29.652344 359.644531 36.066406 366.058594 43.9375 366.058594 L 229.636719 366.058594 L 229.636719 223.210938 L 301.058594 223.210938 L 301.058594 366.058594 L 329.628906 366.058594 C 337.5 366.058594 343.914062 359.644531 343.914062 351.773438 L 343.914062 166.074219 Z M 186.78125 323.203125 L 72.503906 323.203125 L 72.503906 223.210938 L 186.78125 223.210938 Z M 186.78125 323.203125 " fill-opacity="1" fill-rule="nonzero"></path></g></svg>